<svg xmlns="http://www.w3.org/2000/svg" width="256" height="256" viewBox="0 0 256 256">
<!-- SVG created with Arrow, by QuiverAI (https://quiver.ai) -->
  <path d="m229.5 3.5h-203.4c-12.45 0-22.57 10.93-22.57 24.5v200.4c0 13.16 10.12 24.09 22.57 24.09h203.4c12.9 0 23.58-11.38 23.58-24.94v-201c0-13.16-10.25-23.06-23.58-23.06z" fill="#EA5B21" stroke="#F0804D" stroke-miterlimit="10" stroke-width=".75"/>
  <path d="m217.1 203.4-35.3-35.3c11.2-13.44 16.44-27.64 15.58-49.23-1.67-34.86-30.33-72.98-76.14-72.98-41.31-0.68-73.84 32.88-73.84 74.83 0 40.02 31.23 74.97 73.41 74.97 3 0 5.73-0.26 8.69-0.55v-55.7l29.87-46.51h-17.25l-19.39 33.21-18.96-33.42h-18.55l29.41 46.68v40.71c-29.28-2.92-52.12-28.9-52.12-58.52 0-32.83 25.98-61.08 59.4-61.08 32.92 0 60.62 26.43 60.62 60.63 0 26.17-16.23 48.93-42.39 56.75v15.62c11.01-2.61 19.6-7.31 28.37-12.87l35.39 35.85c5.03 5.23 11.91 1.98 14.64-2.59 2.16-4.01 1.6-7.65-1.44-10.5z" fill="#fff" stroke="#F0804D" stroke-miterlimit="10" stroke-width=".5"/>
</svg>