<svg width="64" height="64" viewBox="0 0 64 64" fill="none" xmlns="http://www.w3.org/2000/svg">
<rect width="64" height="64" rx="18" fill="#0F172A"/>
<circle cx="32" cy="32" r="20" stroke="#E2E8F0" stroke-width="3"/>
<path d="M13 32H51" stroke="#E2E8F0" stroke-width="3" stroke-linecap="round"/>
<path d="M32 13C37.45 18.54 40.5 25.11 40.5 32C40.5 38.89 37.45 45.46 32 51" stroke="#E2E8F0" stroke-width="3" stroke-linecap="round"/>
<path d="M32 13C26.55 18.54 23.5 25.11 23.5 32C23.5 38.89 26.55 45.46 32 51" stroke="#E2E8F0" stroke-width="3" stroke-linecap="round"/>
<path d="M17.5 22C21.71 24.74 26.75 26.25 32 26.25C37.25 26.25 42.29 24.74 46.5 22" stroke="#E2E8F0" stroke-width="3" stroke-linecap="round"/>
<path d="M17.5 42C21.71 39.26 26.75 37.75 32 37.75C37.25 37.75 42.29 39.26 46.5 42" stroke="#E2E8F0" stroke-width="3" stroke-linecap="round"/>
</svg>
